<?xml version="1.0" encoding="UTF-8"?>
<svg xmlns="http://www.w3.org/2000/svg" id="Layer_1" data-name="Layer 1" viewBox="0 0 24 24">
  <path d="M18.067,4.039c-2.568-2.512-4.717-3.039-6.067-3.039s-3.499,.527-6.067,3.039c-3.212,3.142-3.88,5.89-3.875,7.641,.006,1.746,.67,3.386,1.822,4.5,.946,.915,2.431,1.458,3.938,1.458,1.145,0,1.939-.269,2.575-.627-.122,1.573-.306,2.337-1.568,2.989h-1.262c-.828,0-1.5,.671-1.5,1.5s.672,1.5,1.5,1.5h8.875c.828,0,1.5-.671,1.5-1.5s-.672-1.5-1.5-1.5h-1.329c-1.225-.637-1.389-1.401-1.504-2.991,.637,.359,1.398,.573,2.237,.62,1.622,.09,3.262-.465,4.279-1.449,1.152-1.114,1.816-2.754,1.822-4.5,.005-1.751-.663-4.5-3.875-7.641Z"/>
</svg>
